inDegrees=no
num_controls=7
num_derivatives=13
num_iterations=116
num_multipliers=7
num_parameters=0
num_slacks=7
num_states=26
objective=0.448337
objective_accelerations=0.049747
objective_balance=0.007367
objective_effort=0.036491
objective_height=0.349794
objective_ligament=0.004938
solver_duration=1658.480525
status=Solve_Succeeded
success=true
DataType=double
version=3
OpenSimVersion=4.5
endheader
time	/jointset/ground_pelvis/pelvis_tilt/value	/jointset/ground_pelvis/pelvis_tx/value	/jointset/ground_pelvis/pelvis_ty/value	/jointset/hip_l/hip_flexion_l/value	/jointset/hip_l/hip_adduction_l/value	/jointset/hip_l/hip_rotation_l/value	/jointset/back/lumbar_extension/value	/jointset/patellofemoral_l/patellar_flexion_l/value	/jointset/knee_l/knee_flexion_l/value	/jointset/knee_l/knee_adduction_l/value	/jointset/knee_l/knee_rotation_l/value	/jointset/ankle_l/ankle_angle_l/value	/jointset/subtalar_l/subtalar_angle_l/value	/jointset/ground_pelvis/pelvis_tilt/speed	/jointset/ground_pelvis/pelvis_tx/speed	/jointset/ground_pelvis/pelvis_ty/speed	/jointset/hip_l/hip_flexion_l/speed	/jointset/hip_l/hip_adduction_l/speed	/jointset/hip_l/hip_rotation_l/speed	/jointset/back/lumbar_extension/speed	/jointset/patellofemoral_l/patellar_flexion_l/speed	/jointset/knee_l/knee_flexion_l/speed	/jointset/knee_l/knee_adduction_l/speed	/jointset/knee_l/knee_rotation_l/speed	/jointset/ankle_l/ankle_angle_l/speed	/jointset/subtalar_l/subtalar_angle_l/speed	/forceset/tau_hip_flexion_l	/forceset/tau_hip_adduction_l	/forceset/tau_hip_rotation_l	/forceset/tau_knee_flexion_l	/forceset/tau_ankle_angle_l	/forceset/tau_subtalar_angle_l	/forceset/tau_lumbar_extension	lambda_cid13_p0	lambda_cid13_p1	lambda_cid13_p2	lambda_cid13_p3	lambda_cid13_p4	lambda_cid13_p5	lambda_cid14_p0	/jointset/ground_pelvis/pelvis_tilt/accel	/jointset/ground_pelvis/pelvis_tx/accel	/jointset/ground_pelvis/pelvis_ty/accel	/jointset/hip_l/hip_flexion_l/accel	/jointset/hip_l/hip_adduction_l/accel	/jointset/hip_l/hip_rotation_l/accel	/jointset/back/lumbar_extension/accel	/jointset/patellofemoral_l/patellar_flexion_l/accel	/jointset/knee_l/knee_flexion_l/accel	/jointset/knee_l/knee_adduction_l/accel	/jointset/knee_l/knee_rotation_l/accel	/jointset/ankle_l/ankle_angle_l/accel	/jointset/subtalar_l/subtalar_angle_l/accel	gamma_cid13_p0	gamma_cid13_p1	gamma_cid13_p2	gamma_cid13_p3	gamma_cid13_p4	gamma_cid13_p5	gamma_cid14_p0
0.5	-0.4433052357423776	-0.07272643568815165	0.7640260694933444	1.259276055971682	-0.3094935681883514	-0.04618716178992316	-0.3291761812792905	0.6884491711754035	0.6884491711753692	-0.17282953772668	0.1741245541003728	0.0387206230883157	-0.0484698602635489	-0.7346006358828107	-0.2684958513287751	-0.495385583769635	2.368860233579464	-0.03412463635377298	0.6189490078773719	-0.6227383379959979	1.780883509002219	1.780883509001929	-0.007076478001073611	0.003068326400591186	0.2409382022302864	-0.00761803211304243	-0.2429840008354555	0.02094972368028019	-0.02153972450377679	-0.2038469194970446	0.1413469282059905	0.03898538551523875	0.2189321969171932	6.546850205886849	-20.81456866395015	6.0422017287647	-5.049206817432188	-606.8324713548798	-56.32688859296394	-28.32930575775217	0.6169031033611494	0.6873375364618388	-0.3282633429956611	-1.481919084154967	0.6046594135520273	-0.2791451241192744	1.747779435413438	-1.071842007998904	-1.071842007998875	0.03499337660920532	-0.03381439082802843	-0.1429207186781883	0.5826111279336063	-2.782083372753843e-07	-8.061160611276114e-07	1.376353108575502e-06	7.677605588929023e-08	-3.690503918314274e-07	3.069388601809672e-08	-3.095868836644709e-07
0.51	-0.4506188005638666	-0.07537673434091775	0.759056843490751	1.282886340099904	-0.3098061130025337	-0.04001158333145658	-0.3353162029236211	0.7062014706637922	0.7062014706638269	-0.1729016846185806	0.1741539026560794	0.04112181495356459	-0.04851859580500723	-0.7280162418033005	-0.2615426311034755	-0.4983593865844382	2.352890596513179	-0.02839572245411834	0.6160721730174282	-0.6051999000096077	1.769341619053964	1.769341619053656	-0.007336317384156479	0.002815828261001969	0.2392499286158701	-0.00214169595263264	-0.2511297475089104	0.02154449070310955	-0.0216307928955708	-0.2050520217901458	0.1410061456117928	0.0395589744327618	0.225232141850524	6.19508351114469	-20.89355998426042	5.930831244530133	-4.945699274580408	-611.3177965550705	-55.94962283695503	-27.29506953858816	0.6935800697562301	0.7025290093243498	-0.2669854217461082	-1.70043522018228	0.5551649852180756	-0.306434907941379	1.766789609366091	-1.230510174644389	-1.230510174647199	-0.0540236026436044	-0.01915577614661077	-0.1893175606608145	0.5281675145137779	-3.24757103264649e-07	-6.513489015829836e-07	1.601765376306458e-06	1.328984067130906e-07	-3.892197615852728e-07	8.394445696788622e-08	-3.280881201867343e-07
0.52	-0.45786364694266	-0.07795685784267882	0.7540608701258047	1.306327738017	-0.3100617371563113	-0.03386766966978196	-0.3412788574622649	0.7238313217154138	0.7238313217155229	-0.1729759401056828	0.174181088580275	0.04350461670710247	-0.04851296345397759	-0.7208569473433768	-0.2544608211277697	-0.5007350562401758	2.335082991354214	-0.02274050427263349	0.612616048517107	-0.5872649168586442	1.756393821649483	1.756393821649157	-0.007498197042298745	0.002635800096521237	0.2372601798879553	0.003255546384543664	-0.2592754941823444	0.02213925772596533	-0.02172186128734536	-0.2062571240832418	0.140665363017604	0.04013256335031348	0.2315320867838673	5.840146835886461	-20.97583646056571	5.824371818860591	-4.863751798717368	-615.8741691690923	-55.65153245859959	-26.25851923717256	0.7318831794439132	0.7130554865430567	-0.2086367111825501	-1.849512702690815	0.5899202699180762	-0.3950030521947331	1.827088468328093	-1.353023499244163	-1.353023499244116	0.05458532159733272	-0.01932039580635237	-0.2032157413779382	0.5667923632869063	-3.002000066092336e-07	-5.91488001722233e-07	1.501422384769644e-06	1.233416035940414e-07	-3.553603112764039e-07	1.101165989924902e-07	-3.064784179753e-07
0.53	-0.4650341650647925	-0.08046557981821965	0.7490441613874492	1.329582101047213	-0.3102610939702257	-0.0277610452959907	-0.3470602314541698	0.7413247702660707	0.7413247702659548	-0.1730511377819462	0.1742066585442568	0.04586611040716631	-0.04845365606680262	-0.7131573409196088	-0.2472673305777349	-0.5025019754739301	2.315486745205828	-0.01715152002523472	0.608635525229963	-0.5689566957448986	1.742057420209974	1.742057420210206	-0.007544714325222546	0.002476184230621548	0.2349890517979676	0.008583723869423736	-0.2672426517074047	0.02250576345051501	-0.02179988989629249	-0.2076942656072173	0.1405843381120908	0.04050382242550322	0.2376602252859877	5.559354267446667	-20.98502201768613	5.708313573407229	-4.788629949904156	-620.471846879671	-55.26139424601885	-25.22176126983618	0.8023646121112539	0.7249560139222544	-0.1450796510531602	-2.060154014390369	0.5401643486395076	-0.4108357747288635	1.84066679954863	-1.509659681459607	-1.509659681375867	-0.03481030062413164	-0.01489514804302884	-0.2464860751566351	0.5124192635301912	-2.723698783260586e-07	-5.42954043767783e-07	1.383040518226159e-06	1.092971209978435e-07	-3.197078691418337e-07	1.295837848821819e-07	-2.833359292935703e-07
0.54	-0.4721250140750357	-0.08290187485332244	0.74401291143244	1.352631406927246	-0.3104052055723697	-0.02169647791661276	-0.3526569276616071	0.7586677125592978	0.7586677125589688	-0.1731269086405093	0.174230509756378	0.04820340787986127	-0.04834174914029049	-0.7049231249651172	-0.2399754330401616	-0.5036432995709338	2.294071561318329	-0.01169146191829093	0.6042046496326335	-0.5503293599651179	1.72629257016425	1.72629257016504	-0.007612833503619445	0.002292049722269828	0.232420934414082	0.01377545425197101	-0.2752098092324491	0.02287226917508722	-0.02187791850520339	-0.2091314071311915	0.1405033132065849	0.04087508150071789	0.2437883637881173	5.274265626324449	-20.99682143022248	5.596517679220449	-4.728748689061677	-625.1550975641927	-54.94327108231469	-24.1854132061955	0.8388050855886755	0.7327368840507028	-0.08351768383247238	-2.213300250513174	0.5641350418270887	-0.4850735142318363	1.890911401535126	-1.638713220487209	-1.638713220487226	0.05026494250272048	-0.02422412429678012	-0.2626136001575369	0.5395029428203452	-2.40918523561107e-07	-5.06952021539453e-07	1.244700747419975e-06	9.028754621416184e-08	-2.820716913703174e-07	1.416327214311194e-07	-2.584975917510885e-07
